<svg width="32" height="32" viewBox="0 0 32 32" fill="none" xmlns="http://www.w3.org/2000/svg">
  <defs>
    <linearGradient id="flame-gradient-favicon" x1="0%" y1="0%" x2="100%" y2="100%">
      <stop offset="0%" style="stop-color:#F97316"/>
      <stop offset="100%" style="stop-color:#EA580C"/>
    </linearGradient>
  </defs>
  <rect width="32" height="32" rx="8" fill="#1C1917"/>
  <path d="M16 4C16 4 8 11 8 21C8 26.5 12 30 16 30C20 30 24 26.5 24 21C24 11 16 4 16 4Z" fill="url(#flame-gradient-favicon)"/>
  <path d="M16 12C16 12 13 15 13 20C13 22.5 14.5 24 16 24C17.5 24 19 22.5 19 20C19 15 16 12 16 12Z" fill="#FFF7ED"/>
</svg>
