<svg width="200" height="40" viewBox="0 0 200 40" fill="none" xmlns="http://www.w3.org/2000/svg">
  <defs>
    <linearGradient id="flame-gradient-light" x1="0%" y1="0%" x2="100%" y2="100%">
      <stop offset="0%" style="stop-color:#F97316"/>
      <stop offset="100%" style="stop-color:#EA580C"/>
    </linearGradient>
  </defs>
  <path d="M20 5C20 5 12 12 12 22C12 27.5 16 32 20 32C24 32 28 27.5 28 22C28 12 20 5 20 5Z" fill="url(#flame-gradient-light)"/>
  <path d="M20 15C20 15 17 18 17 23C17 25.5 18.5 27 20 27C21.5 27 23 25.5 23 23C23 18 20 15 20 15Z" fill="#FFF7ED"/>
  <text x="40" y="27" font-family="system-ui, -apple-system, sans-serif" font-size="24" font-weight="700" fill="#1C1917">Keyflare</text>
</svg>
